<?xml version="1.0" standalone="no"?><!DOCTYPE svg PUBLIC "-//W3C//DTD SVG 1.1//EN" "http://www.w3.org/Graphics/SVG/1.1/DTD/svg11.dtd"><svg t="1615858815511" class="icon" viewBox="0 0 1024 1024" version="1.1" xmlns="http://www.w3.org/2000/svg" p-id="2130" xmlns:xlink="http://www.w3.org/1999/xlink" width="200" height="200"><defs><style type="text/css"></style></defs><path d="M512 610.2528m-84.7872 0a84.7872 84.7872 0 1 0 169.5744 0 84.7872 84.7872 0 1 0-169.5744 0Z" fill="#FACC31" p-id="2131"></path><path d="M767.1296 387.6352V312.7296c0-136.448-111.0016-247.4496-247.4496-247.4496h-9.7792c-136.448 0-247.4496 111.0016-247.4496 247.4496v75.008c-74.752 1.6896-135.0656 63.0272-135.0656 138.1376v288.0512c0 76.2368 62.0032 138.24 138.24 138.24h501.0432c76.2368 0 138.24-62.0032 138.24-138.24v-288.0512c0.0512-76.0832-61.7472-137.984-137.7792-138.24zM313.6512 312.7296c0-108.1856 88.0128-196.2496 196.2496-196.2496h9.7792c108.1856 0 196.2496 88.0128 196.2496 196.2496v74.9056H313.6512V312.7296z m540.1088 501.1968c0 47.9744-39.0656 87.04-87.04 87.04H265.6768c-47.9744 0-87.04-39.0656-87.04-87.04v-288.0512c0-47.9744 39.0656-87.04 87.04-87.04H766.72c47.9744 0 87.04 39.0656 87.04 87.04v288.0512z" fill="#191919" p-id="2132"></path><path d="M512 499.8656c-60.8768 0-110.3872 49.5104-110.3872 110.3872 0 52.0192 36.2496 95.6928 84.7872 107.264v97.9968c0 14.1312 11.4688 25.6 25.6 25.6s25.6-11.4688 25.6-25.6v-97.9968c48.5376-11.5712 84.7872-55.2448 84.7872-107.264 0-60.8256-49.5104-110.3872-110.3872-110.3872z m12.6976 168.192c-3.7376-2.1504-8.0384-3.4816-12.6976-3.4816s-8.9088 1.3312-12.6976 3.4816c-26.5728-5.8368-46.4896-29.4912-46.4896-57.7536 0-32.6144 26.5728-59.1872 59.1872-59.1872s59.1872 26.5728 59.1872 59.1872c0 28.2624-19.968 51.9168-46.4896 57.7536z" fill="#191919" p-id="2133"></path></svg>